<svg width="100%" height="100%" viewBox="0 0 18 14" fill="none" xmlns="http://www.w3.org/2000/svg">
<path fill-rule="evenodd" clip-rule="evenodd" d="M17.2748 2.14204C16.6664 2.41234 16.0116 2.59438 15.3248 2.67657C16.0259 2.25622 16.5643 1.59095 16.8175 0.798253C16.1622 1.18771 15.4346 1.4696 14.6617 1.6224C14.0422 0.962642 13.1591 0.550018 12.1832 0.550018C10.3082 0.550018 8.78791 2.07033 8.78791 3.94533C8.78791 4.21122 8.81825 4.47049 8.87618 4.71928C6.05401 4.57806 3.55234 3.226 1.87757 1.17171C1.58521 1.67315 1.41806 2.25623 1.41806 2.87848C1.41806 4.05622 2.01659 5.0955 2.92844 5.70451C2.37129 5.68685 1.84834 5.53405 1.38993 5.27975V5.32222C1.38993 6.96775 2.56105 8.33967 4.11335 8.65244C3.82871 8.72967 3.52862 8.7716 3.21915 8.7716C3.00015 8.7716 2.78722 8.75008 2.57981 8.71036C3.01174 10.0591 4.26616 11.041 5.75171 11.0686C4.58997 11.9788 3.12592 12.5222 1.53501 12.5222C1.26029 12.5222 0.989992 12.5062 0.724655 12.4742C2.22731 13.4373 4.01185 14 5.92934 14C12.1744 14 15.5896 8.82621 15.5896 4.33975C15.5896 4.19247 15.5868 4.04574 15.5797 3.90066C16.2438 3.42073 16.8197 2.82276 17.2748 2.14204Z" fill="white"/>
</svg>
